<svg width="110" height="36" fill="none" xmlns="http://www.w3.org/2000/svg"><path d="M36.732 5.149c0-1.76-2.11-2.662-3.382-1.446L18.903 17.517a2 2 0 0 0-.617 1.446V30.85c0 1.76 2.11 2.662 3.382 1.446l14.447-13.814a2 2 0 0 0 .617-1.446V5.149z" fill="#FFC0B4"/><path d="M57.908 23.469h-9.432V10.167h2.682v10.746h6.75v2.556zm4.286-12.474c0 .444-.15.816-.45 1.116-.3.3-.672.45-1.116.45-.444 0-.816-.15-1.116-.45-.3-.3-.45-.672-.45-1.116 0-.444.15-.81.45-1.098.3-.3.672-.45 1.116-.45.444 0 .816.15 1.116.45.3.288.45.654.45 1.098zm-.306 2.664v9.81H59.35v-9.81h2.538zm4.798 9.81h-2.538v-9.81h2.484v1.368c.264-.492.672-.888 1.224-1.188.552-.3 1.17-.45 1.854-.45 1.068 0 1.974.354 2.718 1.062.744.708 1.116 1.716 1.116 3.024v5.994h-2.538v-5.31c0-.768-.186-1.362-.558-1.782-.372-.432-.876-.648-1.512-.648-.672 0-1.218.234-1.638.702-.408.456-.612 1.05-.612 1.782v5.256zm16.534-8.73v-1.08h2.34v8.838c0 1.584-.504 2.832-1.511 3.744-1.02.924-2.329 1.386-3.925 1.386-1.691 0-3.191-.474-4.5-1.422l.99-1.908c1.129.768 2.274 1.152 3.438 1.152.948 0 1.692-.252 2.232-.756.552-.504.828-1.158.828-1.962v-.504c-.755.84-1.763 1.26-3.023 1.26-1.44 0-2.617-.474-3.528-1.422-.913-.948-1.369-2.148-1.369-3.6s.48-2.658 1.44-3.618 2.148-1.44 3.564-1.44c1.2 0 2.209.444 3.025 1.332zm-5.471 3.744c0 .816.258 1.482.773 1.998.528.528 1.176.792 1.944.792.769 0 1.416-.264 1.945-.792.516-.528.773-1.194.773-1.998 0-.792-.257-1.446-.773-1.962-.529-.528-1.177-.792-1.945-.792-.767 0-1.415.264-1.944.792-.516.516-.773 1.17-.773 1.962zm17.78 4.068c-.792.768-1.89 1.152-3.294 1.152-1.404 0-2.508-.384-3.312-1.152-.792-.78-1.188-1.854-1.188-3.222v-5.67h2.538v5.67c0 .624.174 1.122.522 1.494.348.372.828.558 1.44.558s1.092-.186 1.44-.558c.348-.372.522-.87.522-1.494v-5.67h2.538v5.67c0 1.38-.402 2.454-1.206 3.222zm10.859-7.722v-1.17h2.412v9.81h-2.412v-1.134c-.84.912-1.884 1.368-3.132 1.368-1.416 0-2.58-.492-3.492-1.476-.912-.984-1.368-2.22-1.368-3.708 0-1.476.462-2.694 1.386-3.654.924-.972 2.082-1.458 3.474-1.458 1.224 0 2.268.474 3.132 1.422zm.036 3.726c0-.768-.264-1.434-.792-1.998-.516-.552-1.17-.828-1.962-.828-.804 0-1.464.276-1.98.828-.504.552-.756 1.218-.756 1.998 0 .792.258 1.464.774 2.016s1.17.828 1.962.828 1.446-.276 1.962-.828a2.849 2.849 0 0 0 .792-2.016z" fill="#181B32"/><path d="M18.447 5.149c0-1.76-2.11-2.662-3.382-1.446L.618 17.517A2 2 0 0 0 0 18.963V30.85c0 1.76 2.11 2.662 3.382 1.446L17.83 18.483a2 2 0 0 0 .618-1.446V5.149z" fill="#524FD5"/></svg>