<svg width="41" height="41" viewBox="0 0 41 41" fill="none" xmlns="http://www.w3.org/2000/svg">
<rect x="2.67871" y="3.24805" width="34.875" height="34.875" rx="17.4375" stroke="#E8E8F6"/>
<path d="M18.0595 26.5331C16.2603 26.5331 14.5831 26.0098 13.1714 25.1069C14.37 25.1844 16.4852 24.9987 17.8008 23.7438C15.8216 23.6529 14.9291 22.135 14.8126 21.4863C14.9808 21.5512 15.7828 21.629 16.2356 21.4474C13.9589 20.8766 13.6096 18.8786 13.6872 18.2688C14.1141 18.5672 14.8385 18.671 15.1231 18.6451C13.0016 17.1271 13.7648 14.8437 14.14 14.3507C15.6624 16.4599 17.9441 17.6446 20.7668 17.7105C20.7136 17.477 20.6855 17.234 20.6855 16.9844C20.6855 15.1931 22.1334 13.741 23.9194 13.741C24.8526 13.741 25.6935 14.1374 26.2837 14.7715C26.9073 14.6254 27.8458 14.2833 28.3046 13.9875C28.0734 14.8178 27.3534 15.5105 26.9179 15.7672C26.9144 15.7584 26.9215 15.7759 26.9179 15.7672C27.3005 15.7093 28.3355 15.5104 28.7445 15.233C28.5422 15.6994 27.7789 16.475 27.1525 16.9092C27.2691 22.0492 23.3364 26.5331 18.0595 26.5331Z" fill="#666680"/>
</svg>
