<?xml version="1.0" standalone="no"?>
<!DOCTYPE svg PUBLIC "-//W3C//DTD SVG 20010904//EN"
 "http://www.w3.org/TR/2001/REC-SVG-20010904/DTD/svg10.dtd">
<svg version="1.0" xmlns="http://www.w3.org/2000/svg"
 width="1760.000000pt" height="1760.000000pt" viewBox="0 0 1760.000000 1760.000000"
 preserveAspectRatio="xMidYMid meet">
<metadata>
Created by potrace 1.14, written by Peter Selinger 2001-2017
</metadata>
<g transform="translate(0.000000,1760.000000) scale(0.100000,-0.100000)"
fill="#000000" stroke="none">
<path d="M2562 11169 c-59 -12 -116 -48 -192 -121 -184 -174 -438 -417 -480
-458 -25 -25 -129 -124 -230 -220 -101 -96 -209 -200 -241 -230 -62 -60 -367
-351 -460 -440 -31 -30 -130 -125 -219 -210 -183 -175 -212 -203 -440 -420
-207 -197 -234 -225 -251 -258 -8 -15 -16 -29 -19 -32 -28 -25 -30 -115 -30
-1081 0 -1094 -2 -1061 62 -1141 45 -58 64 -73 128 -104 44 -21 70 -27 130
-27 95 -1 160 28 245 109 58 54 299 285 450 429 40 39 143 138 230 220 87 83
199 191 251 240 82 80 266 255 434 415 160 153 389 372 445 425 34 33 135 130
225 215 230 219 300 291 300 306 0 8 4 14 9 14 4 0 16 24 25 54 16 50 17 140
18 1055 0 1070 1 1030 -50 1115 -41 67 -124 129 -192 143 -36 8 -118 9 -148 2z"/>
<path d="M5465 11163 c-59 -18 -94 -42 -199 -143 -43 -41 -104 -100 -136 -130
-32 -30 -133 -127 -225 -215 -188 -179 -202 -192 -451 -431 -99 -94 -214 -204
-257 -245 -43 -41 -118 -112 -166 -159 -49 -47 -164 -157 -256 -245 -92 -88
-193 -185 -225 -215 -31 -30 -130 -125 -220 -210 -317 -303 -349 -336 -377
-398 l-26 -57 -1 -1000 c-1 -749 1 -1012 10 -1048 38 -147 159 -241 314 -240
119 0 147 17 366 228 34 33 136 130 225 215 89 85 186 178 214 205 29 28 127
122 219 210 93 88 194 185 226 215 31 30 140 134 240 230 101 96 200 191 220
210 60 58 397 380 514 491 60 57 167 160 237 229 119 117 128 129 146 189 19
61 20 98 18 1075 l-1 1011 -21 47 c-67 146 -237 225 -388 181z"/>
<path d="M9588 10142 c-91 -45 -139 -129 -134 -233 4 -92 48 -168 121 -207 40
-21 50 -24 118 -27 75 -4 119 11 171 57 83 72 109 203 62 301 -57 116 -218
169 -338 109z"/>
<path d="M7767 10050 c-9 -4 -12 -240 -11 -1055 1 -577 2 -1055 3 -1060 1 -7
256 -10 749 -9 411 1 749 2 752 3 3 0 5 91 5 200 0 171 -2 200 -15 203 -8 2
-250 3 -537 3 -357 -1 -523 2 -526 9 -2 6 -3 392 -3 859 1 748 -1 847 -14 848
-56 4 -393 3 -403 -1z"/>
<path d="M11078 9535 c-2 -2 -19 -5 -38 -8 -69 -11 -129 -31 -180 -60 -53 -29
-124 -85 -146 -114 -56 -76 -53 -78 -53 30 0 54 -2 101 -5 105 -3 6 -333 8
-382 3 -7 -1 -10 -241 -8 -778 0 -428 2 -780 3 -783 1 -7 388 -6 395 1 3 3 6
208 6 455 1 487 3 506 56 604 60 111 168 171 309 172 139 1 248 -78 301 -217
12 -34 15 -48 19 -115 2 -36 5 -67 5 -70 2 -5 2 -18 1 -150 -1 -87 -1 -140 -3
-149 0 -3 1 -10 2 -16 4 -24 0 -216 -5 -225 -3 -6 -3 -10 2 -10 6 0 9 -112 2
-130 -1 -3 0 -9 1 -15 1 -5 3 -39 4 -75 l1 -65 200 0 200 0 -1 530 c0 292 -4
553 -8 580 -40 249 -212 428 -471 491 -22 6 -203 13 -207 9z"/>
<path d="M12685 9523 c-78 -15 -163 -40 -182 -56 -7 -5 -13 -7 -13 -3 0 16
-160 -95 -219 -153 -164 -161 -240 -351 -235 -586 3 -140 2 -137 21 -220 41
-178 159 -352 311 -453 137 -92 259 -126 447 -126 108 1 197 14 235 34 10 5
20 6 24 3 3 -3 6 -1 6 5 0 7 8 12 18 12 21 0 108 56 154 99 18 17 36 31 40 31
9 0 3 -142 -8 -185 -25 -101 -122 -218 -219 -264 -161 -76 -414 -65 -613 25
-29 13 -57 24 -62 24 -6 0 -10 5 -10 10 0 6 -9 10 -20 10 -11 0 -20 4 -20 9 0
5 -10 13 -22 17 -12 3 -28 13 -36 20 -21 21 -27 17 -48 -28 -10 -24 -21 -45
-24 -48 -3 -3 -29 -51 -57 -107 l-52 -102 27 -20 c15 -12 32 -24 37 -29 35
-27 275 -138 275 -127 0 3 12 0 28 -6 29 -12 51 -17 97 -25 17 -2 50 -8 75
-12 57 -9 302 -9 357 0 78 13 166 39 230 68 35 16 66 29 68 29 3 1 27 17 55
36 149 105 230 208 290 369 48 126 49 153 47 961 l-2 760 -175 1 c-96 0 -180
-1 -186 -3 -6 -2 -10 -34 -9 -83 1 -44 0 -80 -2 -80 -2 0 -22 17 -44 38 -69
64 -191 131 -269 147 -8 2 -15 4 -15 5 0 4 -71 11 -145 13 -47 1 -116 -3 -155
-10z m265 -367 c59 -9 64 -11 123 -40 73 -35 154 -116 189 -187 103 -212 29
-480 -164 -593 -103 -60 -206 -72 -354 -42 -63 13 -174 94 -231 168 -19 26
-52 103 -62 149 -14 61 -6 215 13 269 53 146 190 257 341 277 22 3 41 6 42 7
3 3 58 -2 103 -8z"/>
<path d="M16457 9534 c-1 -1 -28 -5 -59 -8 -154 -18 -341 -116 -437 -230 -9
-10 -23 -26 -32 -35 -49 -49 -138 -218 -155 -292 -2 -11 -6 -29 -9 -41 -29
-127 -24 -349 11 -473 17 -58 62 -158 97 -215 49 -78 174 -203 249 -248 78
-46 231 -97 303 -100 258 -12 409 36 558 177 20 19 37 31 38 26 1 -6 1 -44 0
-87 0 -51 4 -77 12 -80 7 -2 93 -4 192 -3 l180 0 2 785 2 785 -182 -1 c-100
-1 -188 -2 -195 -3 -10 -1 -12 -21 -10 -82 2 -44 0 -83 -4 -85 -5 -3 -25 11
-45 31 -31 31 -158 125 -158 117 0 -2 -18 5 -40 14 -22 10 -42 18 -45 19 -89
22 -260 40 -273 29z m243 -385 c63 -14 147 -64 198 -117 41 -43 91 -118 96
-144 2 -7 9 -26 16 -43 20 -47 18 -221 -3 -272 -9 -24 -13 -43 -9 -43 4 0 3
-4 -3 -8 -5 -4 -19 -24 -29 -45 -24 -47 -98 -124 -151 -158 -160 -102 -396
-75 -529 59 -85 86 -124 173 -133 300 -17 246 140 451 367 478 25 3 46 7 48 9
5 5 80 -5 132 -16z"/>
<path d="M9499 9490 c-1 -3 -2 -355 -3 -783 -1 -511 2 -777 9 -778 6 -1 97 -2
203 -3 186 -1 192 -1 193 19 0 11 1 363 2 783 2 671 0 762 -13 763 -55 4 -390
3 -391 -1z"/>
<path d="M14042 9481 c-7 -19 -6 -917 2 -996 22 -239 145 -428 337 -518 74
-34 131 -53 201 -66 61 -11 326 -13 343 -3 6 4 15 7 20 8 85 14 132 31 215 75
106 56 219 183 262 294 51 130 52 147 53 700 l0 520 -190 0 c-104 1 -195 -1
-202 -3 -9 -3 -12 -120 -12 -478 0 -261 -3 -492 -7 -512 -4 -20 -17 -58 -30
-83 -49 -97 -128 -148 -247 -156 -162 -12 -282 64 -329 209 -7 21 -11 203 -12
520 -1 268 -6 491 -10 495 -4 4 -93 8 -198 8 -157 0 -191 -2 -196 -14z"/>
</g>
</svg>
